<svg width="1004" height="672" viewBox="0 0 1004 672" fill="none" xmlns="http://www.w3.org/2000/svg">
<path d="M0 379.955C0 379.955 56.475 375.27 117.656 295.622C172.562 223.782 266.688 101.966 313.75 100.404C324.731 100.404 351.4 130.077 351.4 130.077C351.4 130.077 494.156 -8.91706 547.494 0.453354C561.613 3.57683 589.85 50.4289 589.85 50.4289C589.85 50.4289 607.106 47.3054 611.812 50.4289C629.069 59.7993 647.894 108.213 663.581 119.145C677.7 128.516 710.644 123.831 723.194 136.324C737.312 148.818 763.981 209.726 763.981 209.726C763.981 209.726 801.631 211.288 814.181 215.973C826.731 220.658 858.106 245.646 858.106 245.646C858.106 245.646 898.894 230.029 913.013 231.59C934.975 233.152 1000.86 264.387 1000.86 264.387V672H0V379.955Z" fill="#77994F"/>
<path d="M883.206 443.986L767.119 208.164C800.063 290.936 782.806 425.246 883.206 443.986ZM861.244 244.084C861.244 244.084 875.363 336.227 949.094 361.214L861.244 244.084ZM296.494 672L251 506.456L309.044 529.882L263.55 411.19H335.712L298.062 287.813L345.125 269.072L376.5 209.726L349.831 130.077L443.956 312.801L585.144 497.085L699.662 606.407L817.319 636.08L883.206 672H296.494Z" fill="#8BCE4A"/>
<path d="M588 50L602.119 171.815L641.337 249.902H614.669L702.519 371.718L644.475 346.73L689.969 477.916L777.819 543.509L744.875 568.496L843.706 620.034L904.888 671.571H1000.58V627.842L895.475 574.743L870.375 549.756L851.55 568.496L763.7 417.008L675.85 215.544L639.769 160.883L588 50Z" fill="#8BCE4A"/>
<path d="M662.013 672H0V568.925L662.013 672Z" fill="#DBF763"/>
</svg>
