<svg viewBox="0 0 1000 1000" fill="none" xmlns="http://www.w3.org/2000/svg">
<path d="M0 734.375H1000V1000H0V734.375Z" fill="#42ADE2"/>
<path d="M0 818.75C0 818.75 56.25 820.313 117.188 843.75C171.875 865.625 265.625 900 312.5 900C323.437 900 350 892.187 350 892.187C350 892.187 492.188 932.813 546.875 929.688C560.937 929.688 589.063 915.625 589.063 915.625C589.063 915.625 606.25 917.187 610.937 915.625C628.125 912.5 646.875 898.437 662.5 895.312C676.563 892.187 709.375 893.75 721.875 890.625C735.938 887.5 762.5 868.75 762.5 868.75C762.5 868.75 800 868.75 812.5 867.188C825 865.625 856.25 859.375 856.25 859.375C856.25 859.375 896.875 864.062 910.937 864.062C932.812 864.062 998.438 854.688 998.438 854.688V734.375H0V818.75Z" fill="#2B95BF"/>
<path d="M0 442.187C0 442.187 56.25 437.5 117.188 357.812C171.875 285.937 265.625 164.062 312.5 162.5C323.437 162.5 350 192.187 350 192.187C350 192.187 492.188 53.125 545.313 62.5C559.375 65.625 587.5 112.5 587.5 112.5C587.5 112.5 604.687 109.375 609.375 112.5C626.563 121.875 645.312 170.312 660.937 181.25C675 190.625 707.812 185.937 720.312 198.437C734.375 210.937 760.938 271.875 760.938 271.875C760.938 271.875 798.438 273.437 810.938 278.125C823.438 282.812 854.688 307.812 854.688 307.812C854.688 307.812 895.313 292.187 909.375 293.75C931.25 295.312 996.875 326.562 996.875 326.562V734.375H0V442.187Z" fill="#77994F"/>
<path d="M879.687 506.25L764.063 270.312C796.875 353.125 779.687 487.5 879.687 506.25ZM857.813 306.25C857.813 306.25 871.875 398.438 945.312 423.438L857.813 306.25ZM295.312 734.375L250 568.75L307.813 592.188L262.5 473.438H334.375L296.875 350L343.75 331.25L375 271.875L348.437 192.188L442.187 375L582.812 559.375L696.875 668.75L814.062 698.438L879.687 734.375H295.312Z" fill="#8BCE4A"/>
<path d="M589.062 112.5L603.125 234.375L642.187 312.5H615.625L703.125 434.375L645.312 409.375L690.625 540.625L778.125 606.25L745.312 631.25L843.75 682.812L904.688 734.375H1000V690.625L895.312 637.5L870.312 612.5L851.562 631.25L764.063 479.688L676.562 278.125L640.625 223.438L589.062 112.5Z" fill="#8BCE4A"/>
<path d="M659.375 734.375H0V631.25L659.375 734.375Z" fill="#DBF763"/>
<path d="M659.375 734.375H0V782.812L659.375 734.375Z" fill="#1D8299"/>
<path d="M78.125 764.062C104.688 759.375 126.563 778.125 153.125 764.062C182.813 750 203.125 770.312 231.25 775C204.688 779.687 182.813 760.937 156.25 775C126.563 789.062 106.25 770.312 78.125 764.062ZM821.875 825C848.438 820.312 870.313 839.062 896.875 825C926.563 810.937 946.875 831.25 975 835.937C948.438 840.625 926.563 821.875 900 835.937C870.313 850 850 831.25 821.875 825ZM239.063 825C264.063 820.312 284.375 831.25 309.375 834.375C337.5 837.5 359.375 828.125 385.938 820.312C434.375 803.125 470.312 835.937 515.625 845.312C490.625 850 470.312 839.062 445.312 835.937C417.187 832.812 395.313 842.187 368.75 850C320.313 867.187 284.375 834.375 239.063 825ZM545.313 895.312C570.313 890.625 590.625 901.562 615.625 904.687C643.75 907.812 665.625 898.437 692.188 890.625C740.625 873.437 776.562 906.25 821.875 915.625C796.875 921.875 776.563 909.375 751.562 906.25C723.438 903.125 701.563 912.5 675 920.312C626.563 937.5 590.625 904.687 545.313 895.312ZM603.125 762.5C640.625 757.812 673.438 784.375 710.938 765.625C753.125 746.875 782.812 773.437 821.875 779.687C784.375 784.375 751.563 757.812 714.063 776.562C673.438 795.312 643.75 767.187 603.125 762.5ZM751.562 954.687C789.063 950 821.875 976.562 859.375 957.812C901.563 939.062 931.25 965.625 970.312 971.875C932.812 976.562 900 950 862.5 968.75C821.875 987.5 792.187 959.375 751.562 954.687ZM56.25 942.187C93.75 937.5 126.562 964.062 164.063 945.312C204.688 926.562 235.938 953.125 275 959.375C237.5 964.062 204.688 937.5 167.187 956.25C126.562 975 96.875 948.437 56.25 942.187Z" fill="#B4D7EE"/>
</svg>
