<svg width="256" height="256" viewBox="0 0 256 256" fill="none" xmlns="http://www.w3.org/2000/svg">
<g clip-path="url(#clip0_1357_4851)">
<path d="M164 72C175.046 72 184 63.0457 184 52C184 40.9543 175.046 32 164 32C152.954 32 144 40.9543 144 52C144 63.0457 152.954 72 164 72Z" stroke="#50B06A" stroke-width="14" stroke-linecap="round" stroke-linejoin="round"/>
<path d="M8 200L81.1 75.7C81.8248 74.5212 82.8396 73.5477 84.0475 72.8725C85.2554 72.1972 86.6162 71.8427 88 71.8427C89.3838 71.8427 90.7446 72.1972 91.9525 72.8725C93.1604 73.5477 94.1752 74.5212 94.9 75.7L168 200H8Z" stroke="#50B06A" stroke-width="14" stroke-linecap="round" stroke-linejoin="round"/>
<path d="M50.3999 128H125.6" stroke="#50B06A" stroke-width="14" stroke-linecap="round" stroke-linejoin="round"/>
<path d="M144.1 159.4L177.1 103.6C177.825 102.421 178.84 101.448 180.048 100.772C181.255 100.097 182.616 99.7427 184 99.7427C185.384 99.7427 186.745 100.097 187.953 100.772C189.16 101.448 190.175 102.421 190.9 103.6L248 200H168" stroke="#50B06A" stroke-width="14" stroke-linecap="round" stroke-linejoin="round"/>
</g>
<defs>
<clipPath id="clip0_1357_4851">
<rect width="256" height="256" fill="white"/>
</clipPath>
</defs>
</svg>
