<svg width="30" height="28" viewBox="0 0 30 28" fill="none" xmlns="http://www.w3.org/2000/svg">
<path d="M22.2511 14.3471L16.2886 4.22949C16.1564 4.00518 15.9679 3.81926 15.7419 3.69009C15.5158 3.56092 15.2599 3.49298 14.9996 3.49298C14.7392 3.49298 14.4833 3.56092 14.2573 3.69009C14.0312 3.81926 13.8428 4.00518 13.7105 4.22949L10.6762 9.38104C10.9784 12.3421 12.0871 13.5451 14.2477 13.5451C17.2477 13.5451 19.9573 13.8084 22.2526 14.3471H22.2511ZM24.5777 18.2926C22.2631 17.145 18.6272 16.5376 14.2462 16.5376C11.5245 16.5376 9.5929 15.2927 8.54104 13.0004L3.19947 22.0647C3.06541 22.292 2.99385 22.5507 2.99206 22.8146C2.99027 23.0785 3.05831 23.3382 3.18927 23.5673C3.32023 23.7964 3.50947 23.9868 3.73777 24.1192C3.96607 24.2515 4.22532 24.3212 4.48923 24.321H25.5114C25.7752 24.3209 26.0342 24.2511 26.2623 24.1186C26.4904 23.9861 26.6794 23.7957 26.8102 23.5666C26.941 23.3376 27.0089 23.078 27.0071 22.8142C27.0052 22.5505 26.9336 22.2919 26.7996 22.0647L24.5777 18.2941V18.2926ZM18.8666 2.70931L29.3777 20.5445C29.7797 21.2262 29.9944 22.0021 29.9999 22.7935C30.0054 23.585 29.8015 24.3638 29.409 25.051C29.0165 25.7383 28.4492 26.3095 27.7647 26.7068C27.0802 27.1042 26.3028 27.3135 25.5114 27.3135H4.48923C3.69787 27.3136 2.92056 27.1044 2.23607 26.7073C1.55158 26.3102 0.98425 25.7391 0.591578 25.0521C0.198907 24.365 -0.00514675 23.5863 9.86341e-05 22.795C0.00534402 22.0037 0.219702 21.2278 0.621447 20.546L11.1325 2.71081C11.529 2.03754 12.0944 1.47944 12.7728 1.0917C13.4511 0.703957 14.219 0.5 15.0003 0.5C15.7817 0.5 16.5495 0.703957 17.2278 1.0917C17.9062 1.47944 18.4716 2.03754 18.8681 2.71081L18.8666 2.70931Z" fill="#CCEBD0"/>
</svg>
